<?xml version="1.0" standalone="no"?>
<!DOCTYPE svg PUBLIC "-//W3C//DTD SVG 20010904//EN"
 "http://www.w3.org/TR/2001/REC-SVG-20010904/DTD/svg10.dtd">
<svg version="1.0" xmlns="http://www.w3.org/2000/svg"
 width="1203.000000pt" height="1280.000000pt" viewBox="0 0 1203.000000 1280.000000"
 preserveAspectRatio="xMidYMid meet">
<metadata>
Created by potrace 1.15, written by Peter Selinger 2001-2017
</metadata>
<g transform="translate(0.000000,1280.000000) scale(0.100000,-0.100000)"
fill="rgb(251,142,9)" stroke="none">
<path d="M6400 12745 c-85 -23 -283 -77 -440 -119 -157 -43 -320 -87 -362 -98
-43 -12 -75 -25 -72 -30 3 -5 -6 -6 -22 -2 -17 4 -25 3 -21 -3 4 -6 -4 -8 -20
-5 -18 3 -24 1 -19 -6 4 -7 2 -10 -7 -7 -7 3 -128 -26 -268 -65 -317 -88 -714
-189 -881 -225 -70 -16 -125 -31 -123 -35 2 -4 -7 -5 -20 -2 -14 2 -25 0 -25
-7 0 -5 -6 -8 -13 -5 -8 3 -63 -7 -123 -21 -60 -14 -136 -32 -169 -40 -33 -8
-292 -69 -575 -135 -283 -66 -533 -124 -555 -130 -22 -6 -157 -37 -299 -70
-196 -46 -303 -77 -438 -127 -114 -43 -173 -70 -165 -75 7 -5 0 -6 -17 -2 -22
5 -27 4 -21 -6 5 -8 4 -11 -2 -7 -6 4 -61 -12 -124 -34 -63 -23 -244 -87 -402
-142 -277 -98 -289 -103 -309 -137 -48 -79 -213 -325 -220 -328 -5 -2 -6 -7
-3 -12 3 -4 -6 -15 -20 -24 -14 -9 -25 -22 -25 -28 0 -7 7 -3 16 8 19 24 -27
-60 -78 -143 -53 -84 -62 -109 -272 -710 -101 -291 -206 -578 -234 -639 l-50
-110 14 -80 c17 -97 33 -620 69 -2329 9 -390 22 -933 30 -1205 8 -273 17 -675
20 -895 4 -276 10 -428 20 -490 14 -88 38 -357 51 -582 4 -62 10 -110 14 -108
4 3 5 -15 3 -38 -3 -24 2 -106 11 -183 9 -76 25 -218 36 -314 12 -96 23 -200
27 -230 l5 -56 307 -213 c464 -325 390 -267 1966 -1519 204 -162 384 -305 402
-319 l32 -25 733 498 c403 273 766 520 806 547 60 41 75 48 83 36 5 -8 9 -9 9
-4 0 6 3 5 8 -1 4 -6 70 -58 147 -116 77 -57 358 -278 625 -489 267 -212 663
-526 880 -698 217 -173 413 -329 434 -347 22 -19 44 -34 49 -34 5 0 149 95
320 212 172 116 1059 718 1972 1338 1483 1006 2141 1453 2168 1471 7 5 48 520
58 739 2 30 3 28 9 -15 4 -27 8 -40 8 -27 1 15 8 22 22 22 10 0 29 4 42 9 30
12 125 41 164 51 30 7 32 6 49 -42 9 -27 19 -47 21 -45 5 5 -155 439 -165 450
-5 5 -34 1 -65 -8 -32 -9 -59 -15 -61 -13 -2 2 16 314 41 693 l44 690 -20 270
c-11 149 -29 394 -40 545 l-20 275 -107 520 -106 520 -529 1388 c-290 763
-528 1391 -528 1396 0 5 84 48 188 95 103 48 192 93 198 99 6 7 22 96 34 200
13 103 28 191 34 196 6 5 101 46 210 90 109 45 207 86 216 91 15 8 12 27 -37
212 -77 290 -79 301 -67 305 10 3 -73 253 -89 269 -4 4 -7 -7 -7 -24 0 -18 -2
-32 -5 -32 -3 0 -91 41 -197 91 l-192 91 -55 -16 c-78 -21 -235 -62 -606 -157
-176 -45 -412 -105 -525 -134 -113 -29 -358 -92 -545 -140 -187 -48 -495 -128
-685 -177 -190 -48 -581 -147 -870 -218 -289 -72 -547 -137 -574 -145 -28 -8
-51 -13 -53 -11 -2 2 52 29 120 61 l124 58 23 181 c13 100 27 190 31 201 5 16
62 43 223 110 119 48 219 91 221 95 2 3 -26 118 -61 255 -43 163 -62 250 -55
254 7 5 -7 54 -38 140 -44 120 -49 131 -56 103 l-6 -31 -67 30 c-107 48 -312
152 -308 156 2 3 27 -7 55 -21 28 -14 63 -26 78 -26 21 1 8 10 -52 35 -44 19
-91 34 -105 34 -14 0 -95 -20 -180 -44z m160 15 c-34 -11 -60 -11 -35 0 11 5
29 8 40 8 16 0 15 -2 -5 -8z m-100 -26 c-25 -7 -52 -13 -60 -13 -21 1 60 27
85 27 11 0 0 -6 -25 -14z m-81 -18 c-7 -7 -211 -57 -216 -53 -2 3 40 16 94 30
96 25 130 31 122 23z m-232 -62 c-3 -3 -12 -4 -19 -1 -8 3 -5 6 6 6 11 1 17
-2 13 -5z m-40 -10 c-3 -3 -12 -4 -19 -1 -8 3 -5 6 6 6 11 1 17 -2 13 -5z
m-52 -14 c-11 -5 -29 -8 -40 -8 -16 0 -15 2 5 8 34 11 60 11 35 0z m-98 -26
c-3 -3 -12 -4 -19 -1 -8 3 -5 6 6 6 11 1 17 -2 13 -5z m-40 -10 c-3 -3 -12 -4
-19 -1 -8 3 -5 6 6 6 11 1 17 -2 13 -5z m-40 -10 c-3 -3 -12 -4 -19 -1 -8 3
-5 6 6 6 11 1 17 -2 13 -5z m-80 -20 c-3 -3 -12 -4 -19 -1 -8 3 -5 6 6 6 11 1
17 -2 13 -5z m-70 -20 c-3 -3 -12 -4 -19 -1 -8 3 -5 6 6 6 11 1 17 -2 13 -5z
m-80 -20 c-3 -3 -12 -4 -19 -1 -8 3 -5 6 6 6 11 1 17 -2 13 -5z m1393 -49 c0
-5 -5 -3 -10 5 -5 8 -10 20 -10 25 0 6 5 3 10 -5 5 -8 10 -19 10 -25z m-3107
-392 c-7 -2 -19 -2 -25 0 -7 3 -2 5 12 5 14 0 19 -2 13 -5z m-80 -20 c-7 -2
-19 -2 -25 0 -7 3 -2 5 12 5 14 0 19 -2 13 -5z m-178 -44 c-60 -15 -114 -27
-120 -25 -12 3 183 54 210 54 11 0 -29 -13 -90 -29z m-175 -45 c-25 -7 -52
-13 -60 -13 -21 1 60 27 85 27 11 0 0 -6 -25 -14z m7290 -39 c0 -5 -5 -3 -10
5 -5 8 -10 20 -10 25 0 6 5 3 10 -5 5 -8 10 -19 10 -25z m-7385 16 c-11 -5
-36 -11 -55 -14 -35 -6 -34 -6 5 8 43 14 84 19 50 6z m-115 -31 c-34 -11 -60
-11 -35 0 11 5 29 8 40 8 16 0 15 -2 -5 -8z m-63 -16 c-3 -3 -12 -4 -19 -1 -8
3 -5 6 6 6 11 1 17 -2 13 -5z m-40 -10 c-3 -3 -12 -4 -19 -1 -8 3 -5 6 6 6 11
1 17 -2 13 -5z m-40 -10 c-3 -3 -12 -4 -19 -1 -8 3 -5 6 6 6 11 1 17 -2 13 -5z
m7673 -29 c0 -5 -5 -3 -10 5 -5 8 -10 20 -10 25 0 6 5 3 10 -5 5 -8 10 -19 10
-25z m-7725 15 c-11 -5 -29 -8 -40 -8 -16 0 -15 2 5 8 34 11 60 11 35 0z
m-115 -30 c-34 -11 -60 -11 -35 0 11 5 29 8 40 8 16 0 15 -2 -5 -8z m-80 -20
c-34 -11 -60 -11 -35 0 11 5 29 8 40 8 16 0 15 -2 -5 -8z m-63 -16 c-3 -3 -12
-4 -19 -1 -8 3 -5 6 6 6 11 1 17 -2 13 -5z m-52 -14 c-11 -5 -29 -8 -40 -8
-16 0 -15 2 5 8 34 11 60 11 35 0z m-80 -20 c-11 -5 -29 -8 -40 -8 -16 0 -15
2 5 8 34 11 60 11 35 0z m-115 -30 c-34 -11 -60 -11 -35 0 11 5 29 8 40 8 16
0 15 -2 -5 -8z m-80 -20 c-34 -11 -60 -11 -35 0 11 5 29 8 40 8 16 0 15 -2 -5
-8z m-63 -16 c-3 -3 -12 -4 -19 -1 -8 3 -5 6 6 6 11 1 17 -2 13 -5z m-52 -14
c-11 -5 -29 -8 -40 -8 -16 0 -15 2 5 8 34 11 60 11 35 0z m-80 -19 c-11 -5
-36 -11 -55 -14 -35 -6 -34 -6 5 8 43 14 84 19 50 6z m-115 -31 c-34 -11 -60
-11 -35 0 11 5 29 8 40 8 16 0 15 -2 -5 -8z m-63 -16 c-3 -3 -12 -4 -19 -1 -8
3 -5 6 6 6 11 1 17 -2 13 -5z m-40 -10 c-3 -3 -12 -4 -19 -1 -8 3 -5 6 6 6 11
1 17 -2 13 -5z m-40 -10 c-3 -3 -12 -4 -19 -1 -8 3 -5 6 6 6 11 1 17 -2 13 -5z
m-52 -14 c-11 -5 -29 -8 -40 -8 -16 0 -15 2 5 8 34 11 60 11 35 0z m-140 -36
c-27 -7 -54 -13 -60 -13 -17 2 69 27 90 27 11 0 -2 -6 -30 -14z m9472 -7696
c-2 -13 -4 -3 -4 22 0 25 2 35 4 23 2 -13 2 -33 0 -45z m-11031 -553 c2 -22
-9 12 -26 75 -16 63 -30 120 -29 125 1 17 49 -157 55 -200z m11 -132 c-3 -10
-5 -2 -5 17 0 19 2 27 5 18 2 -10 2 -26 0 -35z m10 -80 c-3 -10 -5 -4 -5 12 0
17 2 24 5 18 2 -7 2 -21 0 -30z m263 -529 c138 -108 250 -198 250 -201 0 -7
-300 226 -467 363 l-43 35 2 152 2 152 3 -152 4 -152 249 -197z"/>
</g>
</svg>
